<svg width="24" height="24" viewBox="0 0 24 24" fill="none" xmlns="http://www.w3.org/2000/svg">
<path fill-rule="evenodd" clip-rule="evenodd" d="M15.5354 4.5H6C5.175 4.5 4.5 5.175 4.5 6V19.5L7.5 16.5H18C18.825 16.5 19.5 15.825 19.5 15V8.46456C19.3367 8.48791 19.1698 8.5 19 8.5C17.067 8.5 15.5 6.933 15.5 5C15.5 4.83024 15.5121 4.6633 15.5354 4.5Z" fill="#6C6C6C"/>
<path d="M16.5 5C16.5 3.61929 17.6193 2.5 19 2.5V2.5C20.3807 2.5 21.5 3.61929 21.5 5V5C21.5 6.38071 20.3807 7.5 19 7.5V7.5C17.6193 7.5 16.5 6.38071 16.5 5V5Z" fill="#FF5F5F"/>
</svg>
